<svg width="55" height="55" viewBox="0 0 55 55" fill="none" xmlns="http://www.w3.org/2000/svg">
<path fill-rule="evenodd" clip-rule="evenodd" d="M27.5 0C42.6879 0 55 12.3121 55 27.5C55 42.6879 42.6879 55 27.5 55C12.3121 55 0 42.6879 0 27.5C0 12.3121 12.3121 0 27.5 0Z" fill="#393939"/>
<path fill-rule="evenodd" clip-rule="evenodd" d="M36.4564 26.7669C35.9269 27.4283 35.1995 27.903 34.3802 28.1211C34.469 27.9155 34.5554 27.7092 34.6441 27.5028C34.7251 27.331 34.7934 27.1537 34.8484 26.9725C35.6339 25.0582 35.4909 23.0262 33.5923 22.5845C31.8642 22.1726 29.7621 24.5286 28.3002 26.7371C28.8328 24.6329 29.6081 22.5978 30.6097 20.6709C30.6097 20.6709 31.048 19.8754 31.2522 19.5812C31.4887 19.1685 31.3119 18.7856 30.843 19.1395C30.5421 19.4486 30.2687 19.7844 30.0244 20.1406C29.5076 20.7831 29.0394 21.4618 28.6207 22.1726C27.8595 22.9516 27.0379 23.6703 26.1644 24.3223C25.4527 24.9044 24.7009 25.4363 23.9138 25.9125C23.1283 26.3833 22.3058 26.8258 21.4873 27.2377C19.8212 28.0944 18.0655 28.766 16.2533 29.2406C14.8205 29.6635 13.3319 29.8722 11.8379 29.8581C11.5645 29.8636 11.2911 29.8541 11.0193 29.829C10.9636 29.8055 10.9039 29.7953 10.8442 29.8H10.8135C10.7852 29.8 10.7562 29.7702 10.7271 29.7702C10.6077 29.7647 10.4899 29.7451 10.376 29.7114C10.1717 29.6533 9.96594 29.5937 9.79155 29.5348L9.52761 29.4446C9.49148 29.4195 9.4522 29.3991 9.41057 29.3858H9.3815C9.36894 29.3654 9.34616 29.3544 9.32259 29.3575C9.04294 29.2069 8.77979 29.0296 8.53706 28.8264C8.51507 28.7974 8.48443 28.777 8.44908 28.7675L8.30297 28.62C8.21578 28.5322 8.15686 28.4443 8.06731 28.3549C8.04532 28.3117 8.01468 28.2709 7.97933 28.2372C7.97933 28.2082 7.95027 28.1783 7.95027 28.1501C7.89057 28.0779 7.84187 27.9979 7.80416 27.9139C7.59757 27.557 7.4491 27.1694 7.36505 26.7654C7.27707 26.4696 7.24722 26.1597 7.27707 25.8521C8.19064 25.4591 8.92825 24.7475 9.35323 23.8499C9.61638 23.2019 9.79234 22.3185 9.14899 21.8768C8.67767 21.523 8.0084 22.0533 7.68633 22.4652C7.35012 22.9548 7.0854 23.4906 6.9008 24.0555C6.78611 24.4015 6.69813 24.7561 6.63843 25.1162C5.98959 25.4614 5.30303 25.729 4.59134 25.911C4.49787 25.9478 4.39889 25.9675 4.29834 25.9698C4.27085 25.9839 4.24178 25.9949 4.21115 25.9996H4.11845C3.98334 26.0247 3.84509 26.0342 3.70841 26.0287C3.4264 26.0585 3.14204 26.0585 2.86004 26.0287C2.77206 26.0334 2.68251 26.024 2.59688 25.9996H2.50969C2.46177 25.9871 2.41228 25.9769 2.36358 25.9698C2.16406 25.9149 1.96924 25.8459 1.77836 25.7635C1.56862 25.6725 1.37224 25.554 1.19393 25.4104C0.958268 25.2276 0.742247 25.0197 0.550578 24.7922C0.229296 24.4093 -0.20903 24.8212 0.112252 25.2041C0.629916 25.8513 1.33375 26.3244 2.12949 26.559C2.6338 26.6955 3.15775 26.745 3.67934 26.7065C4.66754 26.6563 5.63924 26.4264 6.54496 26.0287C6.47504 26.7583 6.57481 27.4942 6.83717 28.1783C7.0257 28.5596 7.26215 28.9158 7.53865 29.2391C8.73816 30.5344 10.8135 30.7101 12.4223 30.6819C14.0476 30.5861 15.6555 30.299 17.214 29.8275C19.027 29.2642 20.7795 28.5243 22.448 27.619C23.2335 27.2071 23.9979 26.7944 24.7583 26.3237C25.4904 25.8459 26.1934 25.3249 26.8635 24.7624C27.0991 24.5859 27.3348 24.4093 27.565 24.203C27.0104 25.5328 26.5508 26.9011 26.1911 28.296C25.8219 29.6839 25.587 31.1039 25.4888 32.5365C25.1384 33.6859 24.8164 34.8627 24.4943 35.9823C23.7638 38.4858 22.9452 40.9007 22.8282 43.5517C22.7991 43.9926 22.2728 48.7046 23.7347 47.9099C24.9044 47.232 25.6938 44.1103 26.074 42.3733C26.2783 41.4012 26.6867 37.1897 26.7755 36.0411C26.9593 33.6679 27.2916 31.3064 27.7692 28.9739C28.1949 28.2121 28.6639 27.4746 29.1729 26.7654C29.5398 26.2774 29.9404 25.8145 30.3716 25.3806C30.6073 25.1452 31.3072 24.4682 31.5405 24.2917C32.9733 23.1721 33.9686 23.3196 33.7926 25.6168C33.6575 26.6155 33.3708 27.5891 32.9443 28.5024C31.2169 28.8852 29.1439 29.4438 28.9978 31.5064C28.8854 31.9364 29.1439 32.3757 29.5751 32.4879C29.6733 32.5122 29.7746 32.5201 29.8744 32.5075C30.491 32.3961 31.0668 32.1207 31.5405 31.7128C32.5931 30.9604 33.4541 29.9718 34.055 28.8264C35.1744 28.7118 36.2034 28.1619 36.9198 27.2949C37.1877 26.9136 36.7203 26.3848 36.4564 26.7669ZM7.48052 24.2046L7.5088 24.1748C7.50566 24.1426 7.51666 24.1104 7.53865 24.0869C7.57321 24.021 7.60306 23.9519 7.62663 23.8805C7.68555 23.7629 7.74367 23.6154 7.8018 23.4977C7.8615 23.38 7.91885 23.2913 7.97776 23.1737C8.0139 23.1525 8.04453 23.1219 8.06574 23.0858C8.09638 23.0309 8.13565 22.9814 8.182 22.9383C8.21185 22.9383 8.21185 22.9383 8.21185 22.9085C8.24092 22.9085 8.24092 22.9085 8.24092 22.8795C8.26998 22.8795 8.29904 22.8795 8.29904 22.8496H8.41609C8.44515 22.8496 8.44515 22.8496 8.44515 22.8795H8.475L8.50407 22.9085V23.056C8.49778 23.1187 8.47736 23.1792 8.44515 23.2325V23.2913C8.41609 23.3212 8.41609 23.38 8.38702 23.409C8.35953 23.4836 8.32025 23.5534 8.26998 23.6154C8.24092 23.6452 8.24092 23.704 8.21185 23.7331L8.15294 23.8217C7.92592 24.1387 7.64941 24.4172 7.33441 24.6463C7.39176 24.5019 7.42239 24.3521 7.48052 24.2046ZM25.6679 39.7835C25.4629 41.3149 25.3168 42.2862 24.9947 43.8177C24.7315 44.9364 23.3577 48.0291 23.3867 45.4378C23.3867 44.7309 23.4747 44.0256 23.5038 43.3202C23.6499 40.4331 24.6153 37.4588 25.5509 34.6313C25.638 36.1918 25.697 38.2818 25.6679 39.7835ZM31.5146 30.8011C31.3913 30.9015 31.2734 31.009 31.1642 31.1259C30.9883 31.2428 30.8131 31.3315 30.6089 31.4491C30.2287 31.6257 29.7024 31.1259 30.4329 30.3892C31.0503 29.8016 31.8045 29.3764 32.6269 29.152C32.3315 29.749 31.9576 30.3037 31.5146 30.8011Z" fill="white"/>
</svg>
